<svg width="20" height="20" viewBox="0 0 20 20" fill="none" xmlns="http://www.w3.org/2000/svg">
<path fill-rule="evenodd" clip-rule="evenodd" d="M5.78125 3.71432C4.27849 3.71432 2.6875 5.04487 2.6875 7.14295C2.6875 9.59978 4.46546 11.8787 6.47279 13.6367C7.45225 14.4945 8.43582 15.184 9.17646 15.6597C9.50958 15.8736 9.79179 16.0431 10 16.1641C10.2082 16.0431 10.4904 15.8736 10.8235 15.6597C11.5642 15.184 12.5478 14.4945 13.5272 13.6367C15.5345 11.8787 17.3125 9.59978 17.3125 7.14295C17.3125 5.04487 15.7215 3.71432 14.2188 3.71432C12.6739 3.71432 11.2839 4.84098 10.8113 6.52127C10.7078 6.88925 10.3767 7.14295 10 7.14295C9.62328 7.14295 9.29221 6.88925 9.18872 6.52127C8.71614 4.84098 7.32609 3.71432 5.78125 3.71432ZM10 17.1431C9.61236 17.9045 9.61213 17.9044 9.61188 17.9042L9.60928 17.9028L9.60322 17.8996L9.58243 17.8885C9.56477 17.879 9.53958 17.8654 9.50736 17.8477C9.44294 17.8124 9.35036 17.7607 9.23365 17.6937C9.00033 17.5594 8.66992 17.3626 8.27472 17.1087C7.48605 16.6022 6.43057 15.8631 5.37096 14.9352C3.30016 13.1216 1 10.4005 1 7.14295C1 4.09808 3.34651 2 5.78125 2C7.52203 2 9.047 2.91603 10 4.30856C10.953 2.91603 12.4779 2 14.2188 2C16.6535 2 19 4.09808 19 7.14295C19 10.4005 16.6998 13.1216 14.629 14.9352C13.5694 15.8631 12.5139 16.6022 11.7253 17.1087C11.3301 17.3626 10.9997 17.5594 10.7663 17.6937C10.6496 17.7607 10.5571 17.8124 10.4926 17.8477C10.4604 17.8654 10.4352 17.879 10.4176 17.8885L10.3968 17.8996L10.3907 17.9028L10.3881 17.9042C10.3879 17.9044 10.3876 17.9045 10 17.1431ZM10 17.1431L10.3881 17.9042C10.145 18.0319 9.855 18.0319 9.61188 17.9042L10 17.1431Z" fill="#DAE0E6"/>
</svg>
