<svg width="20" height="20" viewBox="0 0 20 20" fill="none" xmlns="http://www.w3.org/2000/svg">
<path fill-rule="evenodd" clip-rule="evenodd" d="M13.5601 8.56011C13.5601 10.4011 12.0677 11.8934 10.2268 11.8934C8.38584 11.8934 6.89345 10.4011 6.89345 8.56011C6.89345 6.71916 8.38584 5.22678 10.2268 5.22678C12.0677 5.22678 13.5601 6.71916 13.5601 8.56011ZM11.8935 8.56011C11.8935 9.48059 11.1473 10.2268 10.2268 10.2268C9.30631 10.2268 8.56012 9.48059 8.56012 8.56011C8.56012 7.63964 9.30631 6.89344 10.2268 6.89344C11.1473 6.89344 11.8935 7.63964 11.8935 8.56011Z" fill="#DAE0E6"/>
<path fill-rule="evenodd" clip-rule="evenodd" d="M4.82847 13.7652C1.82854 10.9091 1.71199 6.16175 4.56815 3.16182C7.42431 0.161879 12.1716 0.0453293 15.1716 2.90149C18.1715 5.75766 18.288 10.505 15.4319 13.5049L10.2603 18.9368L4.82847 13.7652ZM14.2248 12.3557L10.2025 16.5805L5.9777 12.5581C3.64442 10.3367 3.55377 6.64433 5.77523 4.31105C7.99669 1.97776 11.689 1.88711 14.0223 4.10857C16.3556 6.33003 16.4463 10.0224 14.2248 12.3557Z" fill="#DAE0E6"/>
</svg>
